<svg width="380" height="349" viewBox="0 0 380 349" fill="none" xmlns="http://www.w3.org/2000/svg">
<mask id="path-1-outside-1_10_2" maskUnits="userSpaceOnUse" x="22.9767" y="33.4337" width="334" height="316" fill="black">
<rect fill="white" x="22.9767" y="33.4337" width="334" height="316"/>
<path d="M355.497 191.217C355.497 277.806 281.284 348 189.737 348C98.1901 348 23.9767 277.806 23.9767 191.217C23.9767 104.628 98.1901 34.4337 189.737 34.4337C281.284 34.4337 355.497 104.628 355.497 191.217ZM70.9942 191.217C70.9942 253.245 124.157 303.529 189.737 303.529C255.317 303.529 308.48 253.245 308.48 191.217C308.48 129.189 255.317 78.9048 189.737 78.9048C124.157 78.9048 70.9942 129.189 70.9942 191.217Z"/>
</mask>
<path d="M355.497 191.217C355.497 277.806 281.284 348 189.737 348C98.1901 348 23.9767 277.806 23.9767 191.217C23.9767 104.628 98.1901 34.4337 189.737 34.4337C281.284 34.4337 355.497 104.628 355.497 191.217ZM70.9942 191.217C70.9942 253.245 124.157 303.529 189.737 303.529C255.317 303.529 308.48 253.245 308.48 191.217C308.48 129.189 255.317 78.9048 189.737 78.9048C124.157 78.9048 70.9942 129.189 70.9942 191.217Z" fill="white"/>
<path d="M355.497 191.217C355.497 277.806 281.284 348 189.737 348C98.1901 348 23.9767 277.806 23.9767 191.217C23.9767 104.628 98.1901 34.4337 189.737 34.4337C281.284 34.4337 355.497 104.628 355.497 191.217ZM70.9942 191.217C70.9942 253.245 124.157 303.529 189.737 303.529C255.317 303.529 308.48 253.245 308.48 191.217C308.48 129.189 255.317 78.9048 189.737 78.9048C124.157 78.9048 70.9942 129.189 70.9942 191.217Z" stroke="black" stroke-width="2" mask="url(#path-1-outside-1_10_2)"/>
<rect width="7.64765" height="54.2416" transform="matrix(0.998934 -0.0461646 0.0620947 0.99807 189.305 258.353)" fill="white"/>
<rect x="-2.65257" y="-2.37976" width="12.6477" height="59.2416" transform="matrix(0.998934 -0.0461646 0.0620947 0.99807 189.45 258.226)" stroke="black" stroke-opacity="0.45" stroke-width="5"/>
<path d="M213.509 45.6749C182.059 61.0629 199.678 106.095 199.678 106.095C204.914 99.9 239.319 91.5922 258.719 76.7359C281.068 59.6205 267.283 18.9328 269.965 11.4519C265.697 18.351 245.117 30.2096 213.509 45.6749Z" fill="white"/>
<path d="M199.678 106.095L197.296 107.086L198.792 110.908L201.602 107.584C201.94 107.184 202.708 106.57 204.116 105.762C205.473 104.983 207.221 104.137 209.318 103.212C212.367 101.867 215.993 100.421 220.002 98.8229C221.529 98.2142 223.111 97.5832 224.739 96.9271C236.389 92.2311 250.179 86.3185 260.217 78.6308C272.503 69.2217 274.574 53.5876 274.255 40.2756C274.11 34.2259 273.462 28.4254 272.924 23.618C272.862 23.0635 272.802 22.5221 272.744 21.9951C272.46 19.4203 272.238 17.2268 272.165 15.457C272.088 13.5858 272.204 12.5635 272.358 12.132L267.808 10.2825C267.007 11.5784 265.247 13.3674 262.286 15.6429C259.38 17.8762 255.52 20.4271 250.753 23.2786C241.222 28.9795 228.257 35.7708 212.477 43.4917C195.306 51.8932 191.777 68.3726 192.262 81.8889C192.507 88.7034 193.765 94.9886 194.952 99.5529C195.547 101.84 196.127 103.709 196.561 105.012C196.778 105.663 196.959 106.174 197.087 106.526C197.151 106.702 197.202 106.838 197.237 106.932C197.255 106.979 197.269 107.016 197.279 107.041L197.291 107.072L197.294 107.081L197.296 107.084C197.296 107.085 197.296 107.086 199.678 106.095Z" stroke="black" stroke-opacity="0.45" stroke-width="5"/>
<path d="M177.203 46.7441C204 61.4667 187.416 106.645 187.416 106.645C183.06 100.577 153.495 92.9612 137.123 78.5379C118.261 61.9214 131.396 21.1416 129.292 13.7435C132.788 20.532 150.27 31.9476 177.203 46.7441Z" fill="white"/>
<path d="M187.416 106.645L189.732 107.451L188.088 111.931L185.398 108.183C185.115 107.789 184.473 107.198 183.29 106.429C182.146 105.685 180.664 104.88 178.879 104.001C176.281 102.722 173.19 101.355 169.766 99.8414C168.459 99.2639 167.105 98.665 165.71 98.0412C155.749 93.5854 143.952 87.9505 135.464 80.4727C125.115 71.3555 123.785 55.8958 124.45 42.6482C124.753 36.6265 125.484 30.8425 126.09 26.0445C126.16 25.4911 126.229 24.9509 126.294 24.4248C126.616 21.856 126.873 19.6642 126.988 17.8962C127.109 16.036 127.043 14.9908 126.911 14.5281L131.494 12.507C132.159 13.7989 133.637 15.549 136.128 17.7511C138.576 19.916 141.841 22.3793 145.884 25.1253C153.968 30.6157 164.997 37.1274 178.44 44.5131C193.104 52.5698 195.643 68.8671 194.83 82.278C194.419 89.0583 193.147 95.3357 191.985 99.9036C191.402 102.193 190.845 104.064 190.43 105.37C190.223 106.023 190.051 106.536 189.93 106.889C189.869 107.065 189.821 107.202 189.788 107.296C189.771 107.344 189.758 107.38 189.748 107.406L189.737 107.437L189.734 107.446L189.733 107.449C189.732 107.451 189.732 107.451 187.416 106.645Z" stroke="black" stroke-opacity="0.45" stroke-width="5"/>
<path d="M211.302 98.0888C179.852 113.477 197.47 158.509 197.47 158.509C202.706 152.314 237.112 144.006 256.511 129.15C278.86 112.034 265.075 71.3467 267.757 63.8658C263.489 70.7649 242.909 82.6235 211.302 98.0888Z" fill="white"/>
<path d="M197.47 158.509L195.089 159.5L196.584 163.322L199.394 159.998C199.733 159.598 200.5 158.984 201.908 158.176C203.265 157.397 205.014 156.551 207.11 155.626C210.16 154.28 213.785 152.835 217.794 151.237C219.321 150.628 220.904 149.997 222.531 149.341C234.182 144.645 247.971 138.732 258.009 131.045C270.296 121.636 272.366 106.002 272.047 92.6895C271.902 86.6398 271.254 80.8393 270.717 76.032C270.655 75.4774 270.594 74.936 270.536 74.409C270.252 71.8342 270.03 69.6407 269.958 67.8709C269.881 65.9997 269.996 64.9774 270.151 64.5459L265.601 62.6964C264.799 63.9923 263.039 65.7813 260.078 68.0569C257.172 70.2901 253.312 72.841 248.545 75.6925C239.015 81.3934 226.049 88.1847 210.269 95.9057C193.098 104.307 189.569 120.787 190.055 134.303C190.299 141.117 191.557 147.403 192.744 151.967C193.339 154.254 193.919 156.123 194.353 157.426C194.571 158.077 194.751 158.588 194.879 158.94C194.943 159.116 194.994 159.252 195.03 159.346C195.047 159.393 195.061 159.43 195.071 159.455L195.083 159.486L195.087 159.495L195.088 159.498C195.088 159.499 195.089 159.5 197.47 158.509Z" stroke="black" stroke-opacity="0.45" stroke-width="5"/>
<path d="M177.579 98.8953C204.377 113.618 187.793 158.797 187.793 158.797C183.437 152.728 153.872 145.112 137.499 130.689C118.638 114.073 131.773 73.2928 129.668 65.8947C133.164 72.6832 150.647 84.0988 177.579 98.8953Z" fill="white"/>
<path d="M187.793 158.797L190.108 159.603L188.464 164.082L185.775 160.335C185.491 159.94 184.85 159.349 183.666 158.58C182.522 157.836 181.04 157.032 179.255 156.152C176.658 154.873 173.567 153.507 170.142 151.993C168.836 151.415 167.481 150.816 166.087 150.192C156.126 145.737 144.329 140.102 135.84 132.624C125.491 123.507 124.161 108.047 124.827 94.7994C125.129 88.7777 125.86 82.9937 126.467 78.1957C126.537 77.6423 126.605 77.1021 126.671 76.576C126.992 74.0072 127.249 71.8153 127.364 70.0474C127.486 68.1872 127.419 67.142 127.288 66.6793L131.871 64.6582C132.536 65.9501 134.014 67.7002 136.504 69.9023C138.952 72.0672 142.218 74.5304 146.261 77.2765C154.344 82.7669 165.373 89.2786 178.816 96.6643C193.481 104.721 196.02 121.018 195.207 134.429C194.796 141.209 193.523 147.487 192.361 152.055C191.779 154.344 191.221 156.216 190.807 157.521C190.599 158.174 190.428 158.687 190.307 159.04C190.246 159.216 190.198 159.353 190.164 159.447C190.147 159.495 190.134 159.532 190.125 159.558L190.114 159.588L190.11 159.598L190.109 159.601C190.109 159.602 190.108 159.603 187.793 158.797Z" stroke="black" stroke-opacity="0.45" stroke-width="5"/>
<path d="M209.094 150.503C177.644 165.891 195.262 210.923 195.262 210.923C200.499 204.728 234.904 196.42 254.303 181.564C276.652 164.448 262.867 123.761 265.55 116.28C261.281 123.179 240.702 135.037 209.094 150.503Z" fill="white"/>
<path d="M195.262 210.923L192.881 211.914L194.376 215.736L197.187 212.412C197.525 212.012 198.292 211.398 199.7 210.59C201.057 209.811 202.806 208.965 204.903 208.04C207.952 206.694 211.577 205.249 215.586 203.651C217.113 203.042 218.696 202.411 220.324 201.755C231.974 197.059 245.763 191.146 255.802 183.459C268.088 174.05 270.158 158.416 269.84 145.103C269.695 139.054 269.046 133.253 268.509 128.446C268.447 127.891 268.386 127.35 268.328 126.823C268.045 124.248 267.823 122.055 267.75 120.285C267.673 118.414 267.788 117.391 267.943 116.96L263.393 115.11C262.591 116.406 260.831 118.195 257.87 120.471C254.965 122.704 251.104 125.255 246.337 128.107C236.807 133.807 223.841 140.599 208.061 148.32C190.89 156.721 187.362 173.2 187.847 186.717C188.092 193.531 189.349 199.817 190.536 204.381C191.131 206.668 191.712 208.537 192.146 209.84C192.363 210.491 192.544 211.002 192.672 211.354C192.735 211.53 192.786 211.666 192.822 211.76C192.84 211.807 192.854 211.844 192.864 211.869L192.875 211.9L192.879 211.909L192.88 211.912C192.881 211.913 192.881 211.914 195.262 210.923Z" stroke="black" stroke-opacity="0.45" stroke-width="5"/>
<path d="M177.957 151.047C204.754 165.769 188.17 210.948 188.17 210.948C183.815 204.879 154.249 197.264 137.877 182.84C119.015 166.224 132.151 125.444 130.046 118.046C133.542 124.834 151.024 136.25 177.957 151.047Z" fill="white"/>
<path d="M188.17 210.948L190.486 211.754L188.842 216.233L186.152 212.486C185.869 212.091 185.227 211.501 184.044 210.731C182.9 209.987 181.418 209.183 179.633 208.304C177.035 207.024 173.944 205.658 170.52 204.144C169.213 203.566 167.859 202.967 166.464 202.344C156.503 197.888 144.706 192.253 136.218 184.775C125.869 175.658 124.539 160.198 125.204 146.951C125.507 140.929 126.238 135.145 126.844 130.347C126.914 129.794 126.983 129.253 127.048 128.727C127.37 126.158 127.627 123.967 127.742 122.199C127.863 120.338 127.797 119.293 127.665 118.831L132.248 116.809C132.913 118.101 134.391 119.851 136.882 122.053C139.33 124.218 142.595 126.682 146.638 129.428C154.722 134.918 165.751 141.43 179.194 148.815C193.858 156.872 196.397 173.169 195.584 186.58C195.173 193.361 193.901 199.638 192.739 204.206C192.156 206.495 191.599 208.367 191.184 209.673C190.977 210.326 190.805 210.838 190.684 211.191C190.623 211.367 190.575 211.504 190.542 211.599C190.525 211.646 190.512 211.683 190.502 211.709L190.491 211.74L190.488 211.749L190.487 211.752C190.486 211.753 190.486 211.754 188.17 210.948Z" stroke="black" stroke-opacity="0.45" stroke-width="5"/>
<path d="M205.114 206.906C173.664 222.294 191.282 267.326 191.282 267.326C196.519 261.131 230.924 252.824 250.323 237.967C272.672 220.852 258.887 180.164 261.57 172.683C257.302 179.582 236.722 191.441 205.114 206.906Z" fill="white"/>
<path d="M191.282 267.326L188.901 268.318L190.396 272.14L193.207 268.815C193.545 268.415 194.312 267.801 195.72 266.993C197.078 266.214 198.826 265.369 200.923 264.444C203.972 263.098 207.597 261.653 211.607 260.054C213.133 259.446 214.716 258.815 216.344 258.159C227.994 253.462 241.783 247.55 251.822 239.862C264.108 230.453 266.179 214.819 265.86 201.507C265.715 195.457 265.066 189.657 264.529 184.849C264.467 184.295 264.407 183.753 264.349 183.226C264.065 180.652 263.843 178.458 263.77 176.688C263.693 174.817 263.808 173.795 263.963 173.363L259.413 171.514C258.611 172.81 256.852 174.599 253.891 176.874C250.985 179.108 247.124 181.658 242.357 184.51C232.827 190.211 219.861 197.002 204.081 204.723C186.91 213.125 183.382 229.604 183.867 243.12C184.112 249.935 185.37 256.22 186.556 260.784C187.151 263.072 187.732 264.94 188.166 266.243C188.383 266.895 188.564 267.405 188.692 267.757C188.756 267.933 188.806 268.069 188.842 268.163C188.86 268.21 188.874 268.247 188.884 268.273L188.896 268.303L188.899 268.313L188.9 268.316C188.901 268.317 188.901 268.318 191.282 267.326Z" stroke="black" stroke-opacity="0.45" stroke-width="5"/>
<path d="M179.752 207.137C206.549 221.859 189.965 267.038 189.965 267.038C185.61 260.969 156.044 253.354 139.672 238.93C120.81 222.314 133.946 181.534 131.841 174.136C135.337 180.924 152.82 192.34 179.752 207.137Z" fill="white"/>
<path d="M189.965 267.038L192.281 267.844L190.637 272.323L187.947 268.576C187.664 268.181 187.023 267.591 185.839 266.821C184.695 266.077 183.213 265.273 181.428 264.394C178.83 263.114 175.739 261.748 172.315 260.234C171.009 259.656 169.654 259.057 168.26 258.434C158.299 253.978 146.501 248.343 138.013 240.865C127.664 231.748 126.334 216.288 126.999 203.041C127.302 197.019 128.033 191.235 128.639 186.437C128.709 185.884 128.778 185.343 128.843 184.817C129.165 182.248 129.422 180.057 129.537 178.289C129.658 176.428 129.592 175.383 129.46 174.921L134.043 172.899C134.708 174.191 136.186 175.941 138.677 178.143C141.125 180.308 144.391 182.772 148.434 185.518C156.517 191.008 167.546 197.52 180.989 204.905C195.654 212.962 198.192 229.259 197.379 242.67C196.968 249.451 195.696 255.728 194.534 260.296C193.951 262.585 193.394 264.457 192.979 265.763C192.772 266.416 192.6 266.928 192.479 267.281C192.419 267.457 192.371 267.594 192.337 267.689C192.32 267.736 192.307 267.773 192.297 267.799L192.286 267.83L192.283 267.839L192.282 267.842C192.281 267.843 192.281 267.844 189.965 267.038Z" stroke="black" stroke-opacity="0.45" stroke-width="5"/>
<line y1="-5" x2="206.687" y2="-5" transform="matrix(0.00444364 0.99999 -0.999995 0.00330081 189.365 60.4479)" stroke="black" stroke-opacity="0.45" stroke-width="10"/>
<path d="M58.0811 219.799C53.9307 219.799 50.6592 219.091 48.2666 217.675C44.8975 215.722 43.2129 212.719 43.2129 208.666C43.2129 205.981 43.8477 203.076 45.1172 199.951C46.9727 201.952 48.6816 203.368 50.2441 204.199C51.8066 204.98 53.4668 205.37 55.2246 205.37C60.2051 205.37 64.0381 202.294 66.7236 196.142C67.8467 193.652 68.6768 190.844 69.2139 187.719C69.751 184.545 70.0195 181.445 70.0195 178.417C70.0195 172.656 69.0186 168.163 67.0166 164.941C64.624 161.181 60.8887 159.301 55.8105 159.301C53.125 159.301 50.8301 159.472 48.9258 159.814L36.6211 217.236H15.0146L35.376 121.801L57.5684 118.871L50.5371 152.123H51.416C54.2969 152.123 57.0557 151.415 59.6924 149.999C62.3291 148.583 64.6484 146.655 66.6504 144.213C68.6035 141.821 70.1416 139.184 71.2646 136.303C72.4365 133.422 73.0225 130.59 73.0225 127.807C73.0225 125.659 72.6318 123.632 71.8506 121.728C71.1182 119.775 69.9951 118.066 68.4814 116.601C65.0146 113.281 59.9365 111.62 53.2471 111.62C47.0947 111.62 41.2598 112.939 35.7422 115.576C29.5898 118.554 24.8779 122.582 21.6064 127.66C17.7002 133.569 15.7471 140.38 15.7471 148.095C15.7471 151.318 16.1133 153.808 16.8457 155.566C17.041 156.201 17.2852 156.762 17.5781 157.25C17.7734 157.592 17.8711 157.934 17.8711 158.276C12.5488 158.276 8.54492 157.226 5.85938 155.126C3.17383 152.978 1.83105 149.438 1.83105 144.506C1.83105 137.67 4.44336 131.152 9.66797 124.951C12.1094 122.021 15.0146 119.335 18.3838 116.894C21.8018 114.404 25.5371 112.255 29.5898 110.449C38.1348 106.64 47.0215 104.736 56.25 104.736C66.5527 104.736 74.6338 107.177 80.4932 112.06C83.0322 114.208 84.9365 116.723 86.2061 119.604C87.5244 122.436 88.1836 125.439 88.1836 128.613C88.1836 133.349 86.9141 137.743 84.375 141.796C81.543 146.288 77.8076 149.828 73.1689 152.416C79.1748 153.491 83.7402 156.396 86.8652 161.132C89.5508 165.283 90.8936 170.434 90.8936 176.586C90.8936 179.125 90.6494 181.933 90.1611 185.009C89.6729 188.085 88.9404 191.137 87.9639 194.164C85.5713 201.684 82.1777 207.568 77.7832 211.816C72.3145 217.138 65.7471 219.799 58.0811 219.799ZM106.421 142.236H128.027L126.123 151.537C129.541 148.51 132.324 146.362 134.473 145.092C137.793 143.188 141.04 142.236 144.214 142.236C147.437 142.236 150.024 143.383 151.978 145.678C152.856 146.703 153.516 147.9 153.955 149.267C154.395 150.585 154.614 152.001 154.614 153.515C154.614 154.882 154.395 156.201 153.955 157.47C153.516 158.74 152.856 159.887 151.978 160.912C151.001 161.987 149.805 162.841 148.389 163.476C147.021 164.111 145.483 164.428 143.774 164.428C142.456 164.428 141.406 164.208 140.625 163.769C139.844 163.329 139.233 162.695 138.794 161.865C138.403 161.034 138.135 160.229 137.988 159.448C137.549 157.348 137.109 155.956 136.67 155.273C136.328 154.784 135.791 154.54 135.059 154.54C132.959 154.54 131.177 154.98 129.712 155.859C128.247 156.738 126.392 158.202 124.146 160.253L112.134 217.236H90.5273L106.421 142.236ZM174.097 218.115C166.724 218.115 161.035 216.259 157.031 212.548C152.783 208.593 150.659 202.514 150.659 194.311C150.659 191.235 150.977 187.817 151.611 184.057C152.197 180.297 153.101 176.537 154.321 172.778C155.688 168.578 157.422 164.599 159.521 160.839C161.67 157.079 164.16 153.759 166.992 150.878C173.535 144.238 181.592 140.917 191.162 140.917C197.266 140.917 201.709 142.382 204.492 145.312C206.641 147.607 207.715 150.927 207.715 155.273C207.715 159.521 206.787 163.525 204.932 167.284C203.076 170.995 200.513 174.291 197.241 177.172C193.97 180.004 190.259 182.275 186.108 183.984C181.958 185.644 177.661 186.62 173.218 186.913C172.974 189.452 172.852 191.454 172.852 192.919C172.852 197.802 173.779 201.171 175.635 203.027C177.246 204.687 179.932 205.517 183.691 205.517C189.111 205.517 194.067 204.052 198.56 201.122C200.464 199.902 202.295 198.461 204.053 196.801C205.811 195.092 207.861 192.944 210.205 190.356H215.332C210.596 198.364 205.151 204.736 198.999 209.472C191.431 215.234 183.13 218.115 174.097 218.115ZM174.39 179.736C177.173 179.54 179.883 178.735 182.52 177.319C185.156 175.903 187.5 174.047 189.551 171.752C191.602 169.409 193.213 166.796 194.385 163.915C195.557 160.986 196.143 158.007 196.143 154.98C196.143 152.978 195.85 151.464 195.264 150.439C194.727 149.365 193.774 148.827 192.407 148.827C190.601 148.827 188.77 149.706 186.914 151.464C185.107 153.222 183.35 155.639 181.641 158.715C180.078 161.596 178.662 164.867 177.393 168.53C176.123 172.192 175.122 175.927 174.39 179.736ZM228.223 218.115C222.51 218.115 217.896 216.332 214.38 212.768C210.278 208.569 208.228 202.319 208.228 194.018C208.228 190.502 208.594 186.791 209.326 182.885C210.01 178.979 211.035 175.121 212.402 171.313C215.527 162.719 219.8 155.785 225.22 150.512C231.47 144.506 238.672 141.503 246.826 141.503C250.879 141.503 253.906 142.211 255.908 143.627C257.959 144.994 258.984 146.826 258.984 149.12V150.219L260.596 142.236H282.202L271.436 193.212C270.996 194.677 270.776 196.288 270.776 198.046C270.776 202.343 272.827 204.492 276.929 204.492C279.663 204.492 282.153 203.1 284.399 200.317C286.304 197.973 287.866 194.653 289.087 190.356H295.386C292.7 197.973 289.453 204.003 285.645 208.447C282.422 212.109 278.784 214.745 274.731 216.357C271.753 217.529 268.604 218.115 265.283 218.115C261.035 218.115 257.642 216.967 255.103 214.672C252.612 212.328 251.099 208.886 250.562 204.345C247.729 208.349 244.751 211.474 241.626 213.72C237.622 216.65 233.154 218.115 228.223 218.115ZM237.964 203.613C239.087 203.613 240.259 203.32 241.479 202.734C242.749 202.148 243.97 201.318 245.142 200.243C247.778 197.704 249.536 194.409 250.415 190.356L257.593 156.518C257.593 156.03 257.471 155.468 257.227 154.833C257.031 154.15 256.738 153.515 256.348 152.929C255.176 151.513 253.54 150.805 251.44 150.805C249.438 150.805 247.485 151.464 245.581 152.783C243.726 154.101 241.968 155.932 240.308 158.276C237.378 162.524 234.961 168.066 233.057 174.902C232.178 177.929 231.519 180.932 231.079 183.91C230.64 186.84 230.42 189.501 230.42 191.894C230.42 196.874 231.348 200.243 233.203 202.001C233.838 202.685 234.546 203.124 235.327 203.32C236.108 203.515 236.987 203.613 237.964 203.613ZM307.178 218.115C301.465 218.115 296.851 216.332 293.335 212.768C289.233 208.569 287.183 202.319 287.183 194.018C287.183 190.502 287.549 186.791 288.281 182.885C288.965 178.979 289.99 175.121 291.357 171.313C294.482 162.719 298.755 155.785 304.175 150.512C310.425 144.506 317.627 141.503 325.781 141.503C329.834 141.503 332.861 142.211 334.863 143.627C336.914 144.994 337.939 146.826 337.939 149.12V149.706L345.264 115.209L367.456 112.206L350.244 193.212C349.805 194.677 349.585 196.288 349.585 198.046C349.585 200.097 350.073 201.537 351.05 202.367C352.026 203.198 353.589 203.613 355.737 203.613C358.521 203.613 361.011 202.367 363.208 199.877C365.063 197.68 366.626 194.506 367.896 190.356H374.194C371.558 197.875 368.311 203.808 364.453 208.154C361.182 211.767 357.544 214.282 353.54 215.698C350.659 216.723 347.51 217.236 344.092 217.236C339.941 217.236 336.597 216.137 334.058 213.94C331.519 211.742 329.956 208.544 329.37 204.345C326.685 208.398 323.779 211.523 320.654 213.72C316.602 216.65 312.109 218.115 307.178 218.115ZM316.919 203.613C317.993 203.613 319.141 203.344 320.361 202.807C321.631 202.27 322.827 201.513 323.95 200.536C326.587 198.144 328.345 195.019 329.224 191.161V190.356L336.548 156.005C336.206 154.638 335.718 153.539 335.083 152.709C334.058 151.44 332.495 150.805 330.396 150.805C328.394 150.805 326.44 151.464 324.536 152.783C322.681 154.101 320.923 155.932 319.263 158.276C316.333 162.524 313.916 168.066 312.012 174.902C311.133 177.929 310.474 180.932 310.034 183.91C309.595 186.84 309.375 189.501 309.375 191.894C309.375 196.874 310.303 200.243 312.158 202.001C312.793 202.685 313.501 203.124 314.282 203.32C315.063 203.515 315.942 203.613 316.919 203.613Z" fill="white"/>
<path d="M48.2666 217.675L49.2852 215.954L49.2775 215.949L49.2697 215.945L48.2666 217.675ZM45.1172 199.951L46.584 198.591L44.4473 196.286L43.2643 199.198L45.1172 199.951ZM50.2441 204.199L49.3058 205.965L49.3276 205.976L49.3497 205.987L50.2441 204.199ZM66.7236 196.142L64.9005 195.32L64.8955 195.331L64.8907 195.342L66.7236 196.142ZM69.2139 187.719L71.185 188.058L71.1858 188.053L69.2139 187.719ZM67.0166 164.941L68.7155 163.885L68.7098 163.876L68.7039 163.867L67.0166 164.941ZM48.9258 159.814L48.5725 157.845L47.2514 158.082L46.9702 159.395L48.9258 159.814ZM36.6211 217.236V219.236H38.2379L38.5767 217.655L36.6211 217.236ZM15.0146 217.236L13.0587 216.818L12.5429 219.236H15.0146V217.236ZM35.376 121.801L35.1142 119.818L33.7146 120.003L33.42 121.384L35.376 121.801ZM57.5684 118.871L59.5251 119.285L60.1101 116.519L57.3066 116.889L57.5684 118.871ZM50.5371 152.123L48.5804 151.71L48.07 154.123H50.5371V152.123ZM66.6504 144.213L68.1969 145.481L68.1997 145.478L66.6504 144.213ZM71.2646 136.303L69.4121 135.549L69.4065 135.563L69.4012 135.577L71.2646 136.303ZM71.8506 121.728L69.9779 122.43L69.9887 122.459L70.0002 122.487L71.8506 121.728ZM68.4814 116.601L69.8723 115.164L69.8648 115.156L68.4814 116.601ZM35.7422 115.576L34.8798 113.771L34.8707 113.775L35.7422 115.576ZM21.6064 127.66L23.2748 128.763L23.2813 128.754L23.2878 128.744L21.6064 127.66ZM16.8457 155.566L18.7573 154.978L18.7289 154.885L18.6919 154.797L16.8457 155.566ZM17.5781 157.25L19.3146 156.258L19.3041 156.24L19.2931 156.221L17.5781 157.25ZM17.8711 158.276V160.276H19.8711V158.276H17.8711ZM5.85938 155.126L4.60998 156.688L4.61872 156.695L4.62753 156.702L5.85938 155.126ZM9.66797 124.951L11.1975 126.239L11.2044 126.231L9.66797 124.951ZM18.3838 116.894L19.5573 118.513L19.5615 118.51L18.3838 116.894ZM29.5898 110.449L28.7756 108.622L28.7755 108.622L29.5898 110.449ZM80.4932 112.06L81.785 110.533L81.7793 110.528L81.7735 110.523L80.4932 112.06ZM86.2061 119.604L84.3759 120.41L84.3842 120.429L84.3929 120.448L86.2061 119.604ZM84.375 141.796L86.0669 142.863L86.0698 142.858L84.375 141.796ZM73.1689 152.416L72.1945 150.67L67.3028 153.399L72.8168 154.385L73.1689 152.416ZM86.8652 161.132L88.5444 160.046L88.5395 160.038L88.5346 160.031L86.8652 161.132ZM87.9639 194.164L86.0604 193.55L86.058 193.558L87.9639 194.164ZM77.7832 211.816L76.3932 210.378L76.3883 210.382L77.7832 211.816ZM58.0811 217.799C54.1249 217.799 51.2535 217.119 49.2852 215.954L47.248 219.396C50.0648 221.063 53.7364 221.799 58.0811 221.799V217.799ZM49.2697 215.945C46.5479 214.367 45.2129 212.041 45.2129 208.666H41.2129C41.2129 213.397 43.2471 217.077 47.2635 219.405L49.2697 215.945ZM45.2129 208.666C45.2129 206.296 45.7738 203.648 46.9701 200.703L43.2643 199.198C41.9215 202.503 41.2129 205.666 41.2129 208.666H45.2129ZM43.6503 201.31C45.5846 203.397 47.4687 204.989 49.3058 205.965L51.1825 202.432C49.8946 201.748 48.3607 200.508 46.584 198.591L43.6503 201.31ZM49.3497 205.987C51.1917 206.908 53.1583 207.37 55.2246 207.37V203.37C53.7753 203.37 52.4216 203.051 51.1386 202.41L49.3497 205.987ZM55.2246 207.37C61.2852 207.37 65.6851 203.52 68.5566 196.942L64.8907 195.342C62.391 201.068 59.1249 203.37 55.2246 203.37V207.37ZM68.5468 196.964C69.7495 194.297 70.6237 191.324 71.185 188.058L67.2428 187.38C66.7298 190.365 65.9439 193.006 64.9005 195.32L68.5468 196.964ZM71.1858 188.053C71.7404 184.776 72.0195 181.563 72.0195 178.417H68.0195C68.0195 181.326 67.7615 184.315 67.2419 187.385L71.1858 188.053ZM72.0195 178.417C72.0195 172.462 70.9913 167.549 68.7155 163.885L65.3177 165.996C67.0459 168.778 68.0195 172.849 68.0195 178.417H72.0195ZM68.7039 163.867C65.8877 159.442 61.4601 157.301 55.8105 157.301V161.301C60.3172 161.301 63.3603 162.92 65.3293 166.014L68.7039 163.867ZM55.8105 157.301C53.0484 157.301 50.6284 157.476 48.5725 157.845L49.2791 161.782C51.0318 161.468 53.2016 161.301 55.8105 161.301V157.301ZM46.9702 159.395L34.6655 216.817L38.5767 217.655L50.8814 160.233L46.9702 159.395ZM36.6211 215.236H15.0146V219.236H36.6211V215.236ZM16.9706 217.653L37.332 122.218L33.42 121.384L13.0587 216.818L16.9706 217.653ZM35.6377 123.784L57.8301 120.854L57.3066 116.889L35.1142 119.818L35.6377 123.784ZM55.6116 118.458L48.5804 151.71L52.4938 152.537L59.5251 119.285L55.6116 118.458ZM50.5371 154.123H51.416V150.123H50.5371V154.123ZM51.416 154.123C54.6402 154.123 57.7227 153.327 60.6386 151.761L58.7461 148.237C56.3886 149.503 53.9536 150.123 51.416 150.123V154.123ZM60.6386 151.761C63.5183 150.215 66.0383 148.114 68.1969 145.481L65.1039 142.945C63.2585 145.195 61.1399 146.952 58.7461 148.237L60.6386 151.761ZM68.1997 145.478C70.2852 142.923 71.9292 140.105 73.1281 137.029L69.4012 135.577C68.354 138.263 66.9219 140.718 65.1011 142.948L68.1997 145.478ZM73.1172 137.057C74.375 133.965 75.0225 130.877 75.0225 127.807H71.0225C71.0225 130.303 70.498 132.88 69.4121 135.549L73.1172 137.057ZM75.0225 127.807C75.0225 125.41 74.5853 123.124 73.7009 120.969L70.0002 122.487C70.6784 124.14 71.0225 125.907 71.0225 127.807H75.0225ZM73.7232 121.026C72.8856 118.792 71.5969 116.833 69.8723 115.164L67.0906 118.038C68.3933 119.299 69.3507 120.757 69.9779 122.43L73.7232 121.026ZM69.8648 115.156C65.9002 111.359 60.2471 109.62 53.2471 109.62V113.62C59.6259 113.62 64.1291 115.202 67.0981 118.045L69.8648 115.156ZM53.2471 109.62C46.7982 109.62 40.6684 111.005 34.8798 113.771L36.6045 117.38C41.8512 114.873 47.3913 113.62 53.2471 113.62V109.62ZM34.8707 113.775C28.4322 116.892 23.4208 121.151 19.9251 126.577L23.2878 128.744C26.3351 124.013 30.7475 120.216 36.6137 117.376L34.8707 113.775ZM19.9381 126.557C15.7962 132.822 13.7471 140.024 13.7471 148.095H17.7471C17.7471 140.736 19.6042 134.315 23.2748 128.763L19.9381 126.557ZM13.7471 148.095C13.7471 151.424 14.1188 154.221 14.9995 156.335L18.6919 154.797C18.1078 153.395 17.7471 151.211 17.7471 148.095H13.7471ZM14.9341 156.154C15.1693 156.918 15.4747 157.632 15.8631 158.279L19.2931 156.221C19.0956 155.892 18.9127 155.483 18.7573 154.978L14.9341 156.154ZM15.8416 158.243C15.868 158.289 15.8746 158.312 15.8748 158.312C15.875 158.313 15.8739 158.309 15.8729 158.302C15.8718 158.295 15.8711 158.286 15.8711 158.276H19.8711C19.8711 157.536 19.6561 156.856 19.3146 156.258L15.8416 158.243ZM17.8711 156.276C12.7597 156.276 9.27605 155.259 7.09122 153.551L4.62753 156.702C7.81379 159.193 12.3379 160.276 17.8711 160.276V156.276ZM7.10877 153.565C5.07735 151.939 3.83105 149.105 3.83105 144.506H-0.168945C-0.168945 149.77 1.2703 154.016 4.60998 156.688L7.10877 153.565ZM3.83105 144.506C3.83105 138.226 6.21745 132.15 11.1975 126.239L8.13846 123.662C2.66927 130.153 -0.168945 137.114 -0.168945 144.506H3.83105ZM11.2044 126.231C13.5302 123.44 16.3107 120.866 19.5573 118.513L17.2102 115.274C13.7186 117.805 10.6885 120.602 8.13153 123.67L11.2044 126.231ZM19.5615 118.51C22.8606 116.107 26.4733 114.028 30.4042 112.275L28.7755 108.622C24.6009 110.483 20.7429 112.701 17.2061 115.277L19.5615 118.51ZM30.4041 112.275C38.6964 108.579 47.306 106.736 56.25 106.736V102.736C46.737 102.736 37.5732 104.701 28.7756 108.622L30.4041 112.275ZM56.25 106.736C66.2493 106.736 73.8216 109.104 79.2128 113.596L81.7735 110.523C75.446 105.25 66.8562 102.736 56.25 102.736V106.736ZM79.2013 113.587C81.522 115.55 83.2357 117.823 84.3759 120.41L88.0362 118.797C86.6374 115.623 84.5425 112.866 81.785 110.533L79.2013 113.587ZM84.3929 120.448C85.5862 123.011 86.1836 125.726 86.1836 128.613H90.1836C90.1836 125.152 89.4627 121.86 88.0192 118.76L84.3929 120.448ZM86.1836 128.613C86.1836 132.97 85.0219 136.997 82.6802 140.734L86.0698 142.858C88.8063 138.49 90.1836 133.728 90.1836 128.613H86.1836ZM82.6831 140.73C80.0297 144.939 76.541 148.245 72.1945 150.67L74.1434 154.163C79.0742 151.412 83.0563 147.638 86.0669 142.863L82.6831 140.73ZM72.8168 154.385C78.3285 155.371 82.397 157.992 85.1959 162.234L88.5346 160.031C85.0835 154.8 80.0211 151.61 73.5211 150.448L72.8168 154.385ZM85.1861 162.219C87.6163 165.974 88.8936 170.725 88.8936 176.586H92.8936C92.8936 170.143 91.4853 164.591 88.5444 160.046L85.1861 162.219ZM88.8936 176.586C88.8936 179 88.6612 181.701 88.1859 184.696L92.1364 185.323C92.6376 182.165 92.8936 179.251 92.8936 176.586H88.8936ZM88.1859 184.696C87.7141 187.668 87.006 190.619 86.0604 193.55L89.8673 194.778C90.8748 191.655 91.6316 188.503 92.1364 185.323L88.1859 184.696ZM86.058 193.558C83.7375 200.851 80.4902 206.417 76.3932 210.378L79.1732 213.254C83.8652 208.718 87.4051 202.517 89.8697 194.771L86.058 193.558ZM76.3883 210.382C71.2949 215.339 65.2287 217.799 58.0811 217.799V221.799C66.2654 221.799 73.334 218.937 79.1781 213.249L76.3883 210.382ZM106.421 142.236V140.236H104.8L104.464 141.821L106.421 142.236ZM128.027 142.236L129.987 142.637L130.478 140.236H128.027V142.236ZM126.123 151.537L124.164 151.136L122.961 157.01L127.449 153.035L126.123 151.537ZM134.473 145.092L133.478 143.357L133.466 143.364L133.455 143.37L134.473 145.092ZM151.978 145.678L150.454 146.974L150.459 146.98L151.978 145.678ZM153.955 149.267L152.051 149.879L152.054 149.889L152.058 149.899L153.955 149.267ZM151.978 160.912L153.457 162.258L153.477 162.236L153.496 162.214L151.978 160.912ZM148.389 163.476L147.571 161.651L147.558 161.656L147.546 161.662L148.389 163.476ZM138.794 161.865L136.984 162.716L137.004 162.759L137.026 162.8L138.794 161.865ZM137.988 159.448L139.954 159.079L139.95 159.058L139.946 159.038L137.988 159.448ZM136.67 155.273L138.352 154.191L138.331 154.158L138.308 154.126L136.67 155.273ZM124.146 160.253L122.797 158.776L122.321 159.211L122.189 159.841L124.146 160.253ZM112.134 217.236V219.236H113.756L114.091 217.648L112.134 217.236ZM90.5273 217.236L88.5708 216.821L88.0591 219.236H90.5273V217.236ZM106.421 144.236H128.027V140.236H106.421V144.236ZM126.068 141.835L124.164 151.136L128.082 151.939L129.987 142.637L126.068 141.835ZM127.449 153.035C130.836 150.035 133.507 147.986 135.49 146.814L133.455 143.37C131.142 144.737 128.246 146.986 124.797 150.04L127.449 153.035ZM135.468 146.827C138.547 145.061 141.455 144.236 144.214 144.236V140.236C140.625 140.236 137.038 141.315 133.478 143.357L135.468 146.827ZM144.214 144.236C146.896 144.236 148.91 145.16 150.454 146.974L153.501 144.382C151.138 141.606 147.977 140.236 144.214 140.236V144.236ZM150.459 146.98C151.154 147.79 151.688 148.749 152.051 149.879L155.859 148.655C155.344 147.051 154.559 145.616 153.496 144.376L150.459 146.98ZM152.058 149.899C152.423 150.996 152.614 152.197 152.614 153.515H156.614C156.614 151.805 156.366 150.174 155.852 148.634L152.058 149.899ZM152.614 153.515C152.614 154.663 152.43 155.76 152.065 156.816L155.845 158.124C156.359 156.641 156.614 155.101 156.614 153.515H152.614ZM152.065 156.816C151.708 157.847 151.175 158.775 150.459 159.611L153.496 162.214C154.537 160.999 155.323 159.632 155.845 158.124L152.065 156.816ZM150.498 159.567C149.719 160.424 148.753 161.121 147.571 161.651L149.207 165.301C150.856 164.561 152.283 163.549 153.457 162.258L150.498 159.567ZM147.546 161.662C146.476 162.159 145.231 162.428 143.774 162.428V166.428C145.735 166.428 147.567 166.063 149.231 165.29L147.546 161.662ZM143.774 162.428C142.649 162.428 141.979 162.236 141.606 162.026L139.644 165.512C140.833 166.181 142.263 166.428 143.774 166.428V162.428ZM141.606 162.026C141.175 161.784 140.831 161.437 140.562 160.929L137.026 162.8C137.636 163.952 138.512 164.875 139.644 165.512L141.606 162.026ZM140.604 161.013C140.274 160.314 140.065 159.67 139.954 159.079L136.023 159.816C136.205 160.788 136.532 161.755 136.984 162.716L140.604 161.013ZM139.946 159.038C139.513 156.969 139.018 155.227 138.352 154.191L134.988 156.354C135.201 156.686 135.585 157.727 136.031 159.857L139.946 159.038ZM138.308 154.126C137.505 152.978 136.275 152.54 135.059 152.54V156.54C135.206 156.54 135.229 156.565 135.183 156.544C135.16 156.533 135.129 156.515 135.097 156.489C135.065 156.462 135.043 156.437 135.031 156.42L138.308 154.126ZM135.059 152.54C132.679 152.54 130.523 153.04 128.683 154.144L130.741 157.574C131.831 156.92 133.239 156.54 135.059 156.54V152.54ZM128.683 154.144C127.048 155.124 125.078 156.694 122.797 158.776L125.494 161.73C127.705 159.711 129.446 158.351 130.741 157.574L128.683 154.144ZM122.189 159.841L110.177 216.823L114.091 217.648L126.103 160.666L122.189 159.841ZM112.134 215.236H90.5273V219.236H112.134V215.236ZM92.4839 217.65L108.377 142.65L104.464 141.821L88.5708 216.821L92.4839 217.65ZM157.031 212.548L155.668 214.012L155.672 214.015L157.031 212.548ZM151.611 184.057L153.583 184.39L153.586 184.377L153.587 184.365L151.611 184.057ZM154.321 172.778L152.42 172.158L152.419 172.16L154.321 172.778ZM159.521 160.839L157.785 159.847L157.78 159.855L157.775 159.864L159.521 160.839ZM166.992 150.878L165.568 149.475L165.566 149.476L166.992 150.878ZM204.492 145.312L205.952 143.945L205.947 143.94L205.942 143.934L204.492 145.312ZM204.932 167.284L206.721 168.179L206.725 168.17L204.932 167.284ZM197.241 177.172L198.55 178.684L198.557 178.679L198.563 178.673L197.241 177.172ZM186.108 183.984L186.851 185.841L186.861 185.837L186.87 185.833L186.108 183.984ZM173.218 186.913L173.086 184.918L171.39 185.03L171.227 186.722L173.218 186.913ZM175.635 203.027L177.07 201.634L177.06 201.623L177.049 201.612L175.635 203.027ZM198.56 201.122L197.48 199.439L197.474 199.443L197.467 199.447L198.56 201.122ZM204.053 196.801L205.426 198.255L205.437 198.245L205.447 198.235L204.053 196.801ZM210.205 190.356V188.356H209.318L208.723 189.013L210.205 190.356ZM215.332 190.356L217.053 191.374L218.839 188.356H215.332V190.356ZM198.999 209.472L200.211 211.063L200.219 211.057L198.999 209.472ZM174.39 179.736L172.426 179.358L171.934 181.913L174.53 181.731L174.39 179.736ZM189.551 171.752L191.042 173.085L191.049 173.077L191.056 173.069L189.551 171.752ZM194.385 163.915L196.237 164.669L196.242 164.658L194.385 163.915ZM195.264 150.439L193.475 151.333L193.5 151.383L193.527 151.431L195.264 150.439ZM186.914 151.464L185.539 150.012L185.529 150.021L185.519 150.031L186.914 151.464ZM181.641 158.715L179.892 157.744L179.887 157.753L179.883 157.762L181.641 158.715ZM174.097 216.115C167.048 216.115 161.911 214.344 158.391 211.081L155.672 214.015C160.159 218.174 166.399 220.115 174.097 220.115V216.115ZM158.394 211.084C154.697 207.642 152.659 202.193 152.659 194.311H148.659C148.659 202.834 150.869 209.544 155.668 214.012L158.394 211.084ZM152.659 194.311C152.659 191.369 152.963 188.065 153.583 184.39L149.639 183.724C148.99 187.569 148.659 191.1 148.659 194.311H152.659ZM153.587 184.365C154.156 180.714 155.034 177.058 156.224 173.395L152.419 172.16C151.167 176.017 150.238 179.88 149.635 183.749L153.587 184.365ZM156.223 173.397C157.551 169.318 159.233 165.458 161.268 161.814L157.775 159.864C155.611 163.74 153.826 167.839 152.42 172.158L156.223 173.397ZM161.258 161.831C163.327 158.21 165.715 155.03 168.418 152.28L165.566 149.476C162.605 152.488 160.013 155.948 157.785 159.847L161.258 161.831ZM168.417 152.282C174.573 146.034 182.111 142.917 191.162 142.917V138.917C181.072 138.917 172.497 142.441 165.568 149.475L168.417 152.282ZM191.162 142.917C196.995 142.917 200.793 144.321 203.042 146.689L205.942 143.934C202.625 140.443 197.536 138.917 191.162 138.917V142.917ZM203.032 146.679C204.72 148.481 205.715 151.239 205.715 155.273H209.715C209.715 150.615 208.562 146.732 205.952 143.945L203.032 146.679ZM205.715 155.273C205.715 159.218 204.856 162.919 203.138 166.399L206.725 168.17C208.718 164.131 209.715 159.824 209.715 155.273H205.715ZM203.143 166.39C201.408 169.859 199.008 172.952 195.919 175.671L198.563 178.673C202.018 175.631 204.744 172.132 206.72 168.179L203.143 166.39ZM195.932 175.66C192.83 178.346 189.305 180.504 185.347 182.134L186.87 185.833C191.212 184.045 195.11 181.663 198.55 178.684L195.932 175.66ZM185.366 182.127C181.41 183.709 177.319 184.639 173.086 184.918L173.349 188.909C178.003 188.602 182.506 187.579 186.851 185.841L185.366 182.127ZM171.227 186.722C170.98 189.286 170.852 191.361 170.852 192.919H174.852C174.852 191.548 174.967 189.619 175.209 187.105L171.227 186.722ZM170.852 192.919C170.852 197.922 171.775 201.996 174.221 204.441L177.049 201.612C175.783 200.347 174.852 197.682 174.852 192.919H170.852ZM174.2 204.42C176.366 206.651 179.715 207.517 183.691 207.517V203.517C180.148 203.517 178.127 202.722 177.07 201.634L174.2 204.42ZM183.691 207.517C189.495 207.517 194.831 205.942 199.652 202.798L197.467 199.447C193.303 202.163 188.728 203.517 183.691 203.517V207.517ZM199.639 202.806C201.655 201.514 203.584 199.995 205.426 198.255L202.679 195.347C201.006 196.927 199.273 198.29 197.48 199.439L199.639 202.806ZM205.447 198.235C207.245 196.487 209.326 194.306 211.687 191.698L208.723 189.013C206.397 191.582 204.376 193.697 202.659 195.367L205.447 198.235ZM210.205 192.356H215.332V188.356H210.205V192.356ZM213.611 189.338C208.979 197.169 203.694 203.334 197.779 207.887L200.219 211.057C206.609 206.138 212.213 199.558 217.053 191.374L213.611 189.338ZM197.788 207.881C190.548 213.392 182.668 216.115 174.097 216.115V220.115C183.592 220.115 192.314 217.075 200.21 211.063L197.788 207.881ZM174.53 181.731C177.615 181.514 180.598 180.621 183.466 179.081L181.573 175.557C179.167 176.849 176.731 177.566 174.25 177.741L174.53 181.731ZM183.466 179.081C186.314 177.551 188.84 175.549 191.042 173.085L188.059 170.42C186.16 172.546 183.999 174.254 181.573 175.557L183.466 179.081ZM191.056 173.069C193.253 170.559 194.982 167.756 196.237 164.669L192.532 163.162C191.444 165.837 189.95 168.258 188.046 170.435L191.056 173.069ZM196.242 164.658C197.504 161.502 198.143 158.272 198.143 154.98H194.143C194.143 157.742 193.609 160.469 192.528 163.173L196.242 164.658ZM198.143 154.98C198.143 152.843 197.84 150.917 197 149.447L193.527 151.431C193.859 152.012 194.143 153.113 194.143 154.98H198.143ZM197.053 149.544C196.624 148.687 195.987 147.972 195.129 147.488C194.287 147.013 193.35 146.827 192.407 146.827V150.827C192.832 150.827 193.054 150.91 193.164 150.972C193.259 151.026 193.366 151.116 193.475 151.333L197.053 149.544ZM192.407 146.827C189.91 146.827 187.611 148.049 185.539 150.012L188.29 152.916C189.928 151.364 191.292 150.827 192.407 150.827V146.827ZM185.519 150.031C183.53 151.966 181.662 154.559 179.892 157.744L183.389 159.686C185.038 156.719 186.685 154.478 188.309 152.898L185.519 150.031ZM179.883 157.762C178.26 160.754 176.802 164.128 175.503 167.875L179.282 169.185C180.522 165.607 181.896 162.438 183.399 159.669L179.883 157.762ZM175.503 167.875C174.202 171.627 173.176 175.455 172.426 179.358L176.354 180.113C177.068 176.399 178.044 172.756 179.282 169.185L175.503 167.875ZM214.38 212.768L212.949 214.165L212.956 214.172L214.38 212.768ZM209.326 182.885L211.292 183.254L211.294 183.242L211.296 183.23L209.326 182.885ZM212.402 171.313L210.523 170.629L210.52 170.637L212.402 171.313ZM225.22 150.512L223.834 149.07L223.825 149.079L225.22 150.512ZM255.908 143.627L254.753 145.26L254.776 145.276L254.799 145.291L255.908 143.627ZM258.984 150.219H256.984L260.945 150.615L258.984 150.219ZM260.596 142.236V140.236H258.959L258.635 141.84L260.596 142.236ZM282.202 142.236L284.159 142.649L284.669 140.236H282.202V142.236ZM271.436 193.212L273.351 193.787L273.375 193.707L273.392 193.626L271.436 193.212ZM284.399 200.317L282.847 199.056L282.843 199.061L284.399 200.317ZM289.087 190.356V188.356H287.576L287.163 189.809L289.087 190.356ZM295.386 190.356L297.272 191.021L298.212 188.356H295.386V190.356ZM285.645 208.447L287.146 209.768L287.155 209.758L287.163 209.748L285.645 208.447ZM274.731 216.357L275.464 218.218L275.47 218.215L274.731 216.357ZM255.103 214.672L253.732 216.129L253.746 216.142L253.761 216.156L255.103 214.672ZM250.562 204.345L252.548 204.11L251.936 198.938L248.929 203.19L250.562 204.345ZM241.626 213.72L240.459 212.096L240.452 212.101L240.445 212.106L241.626 213.72ZM241.479 202.734L240.641 200.918L240.628 200.924L240.614 200.931L241.479 202.734ZM245.142 200.243L246.493 201.718L246.511 201.701L246.529 201.684L245.142 200.243ZM250.415 190.356L252.37 190.78L252.372 190.771L250.415 190.356ZM257.593 156.518L259.549 156.933L259.593 156.728V156.518H257.593ZM257.227 154.833L255.304 155.383L255.328 155.468L255.36 155.551L257.227 154.833ZM256.348 152.929L258.012 151.82L257.954 151.734L257.888 151.654L256.348 152.929ZM245.581 152.783L244.443 151.138L244.433 151.145L244.423 151.152L245.581 152.783ZM240.308 158.276L238.676 157.12L238.668 157.13L238.661 157.14L240.308 158.276ZM233.057 174.902L234.977 175.459L234.98 175.449L234.983 175.438L233.057 174.902ZM231.079 183.91L233.057 184.207L233.058 184.202L231.079 183.91ZM233.203 202.001L234.669 200.64L234.625 200.593L234.579 200.549L233.203 202.001ZM228.223 216.115C222.963 216.115 218.89 214.492 215.804 211.363L212.956 214.172C216.901 218.173 222.057 220.115 228.223 220.115V216.115ZM215.811 211.37C212.202 207.676 210.228 202.014 210.228 194.018H206.228C206.228 202.623 208.354 209.461 212.949 214.165L215.811 211.37ZM210.228 194.018C210.228 190.641 210.579 187.054 211.292 183.254L207.36 182.516C206.608 186.529 206.228 190.364 206.228 194.018H210.228ZM211.296 183.23C211.96 179.438 212.955 175.692 214.285 171.989L210.52 170.637C209.115 174.551 208.06 178.519 207.356 182.54L211.296 183.23ZM214.282 171.996C217.325 163.627 221.451 156.969 226.614 151.945L223.825 149.079C218.148 154.602 213.73 161.811 210.523 170.629L214.282 171.996ZM226.605 151.954C232.509 146.281 239.223 143.503 246.826 143.503V139.503C238.12 139.503 230.431 142.731 223.834 149.07L226.605 151.954ZM246.826 143.503C250.71 143.503 253.245 144.194 254.753 145.26L257.063 141.994C254.567 140.229 251.048 139.503 246.826 139.503V143.503ZM254.799 145.291C256.342 146.32 256.984 147.551 256.984 149.12H260.984C260.984 146.1 259.576 143.669 257.018 141.963L254.799 145.291ZM256.984 149.12V150.219H260.984V149.12H256.984ZM260.945 150.615L262.556 142.631L258.635 141.84L257.024 149.823L260.945 150.615ZM260.596 144.236H282.202V140.236H260.596V144.236ZM280.245 141.822L269.479 192.799L273.392 193.626L284.159 142.649L280.245 141.822ZM269.52 192.638C269.017 194.314 268.776 196.122 268.776 198.046H272.776C272.776 196.455 272.975 195.04 273.351 193.787L269.52 192.638ZM268.776 198.046C268.776 200.48 269.356 202.677 270.868 204.261C272.396 205.863 274.545 206.492 276.929 206.492V202.492C275.211 202.492 274.283 202.046 273.761 201.499C273.222 200.935 272.776 199.909 272.776 198.046H268.776ZM276.929 206.492C280.443 206.492 283.456 204.67 285.956 201.573L282.843 199.061C280.851 201.53 278.883 202.492 276.929 202.492V206.492ZM285.952 201.578C288.089 198.948 289.748 195.346 291.011 190.902L287.163 189.809C285.984 193.959 284.519 196.998 282.847 199.056L285.952 201.578ZM289.087 192.356H295.386V188.356H289.087V192.356ZM293.5 189.691C290.867 197.157 287.725 202.946 284.126 207.145L287.163 209.748C291.181 205.061 294.533 198.789 297.272 191.021L293.5 189.691ZM284.143 207.125C281.104 210.579 277.719 213.017 273.993 214.498L275.47 218.215C279.849 216.474 283.74 213.638 287.146 209.768L284.143 207.125ZM273.999 214.496C271.263 215.572 268.362 216.115 265.283 216.115V220.115C268.845 220.115 272.243 219.485 275.464 218.218L273.999 214.496ZM265.283 216.115C261.406 216.115 258.532 215.076 256.444 213.188L253.761 216.156C256.751 218.858 260.664 220.115 265.283 220.115V216.115ZM256.473 213.216C254.426 211.289 253.048 208.343 252.548 204.11L248.575 204.58C249.149 209.429 250.799 213.368 253.732 216.129L256.473 213.216ZM248.929 203.19C246.191 207.06 243.362 210.009 240.459 212.096L242.793 215.344C246.14 212.939 249.268 209.638 252.194 205.5L248.929 203.19ZM240.445 212.106C236.782 214.787 232.727 216.115 228.223 216.115V220.115C233.582 220.115 238.463 218.513 242.807 215.334L240.445 212.106ZM237.964 205.613C239.442 205.613 240.909 205.226 242.345 204.537L240.614 200.931C239.609 201.413 238.732 201.613 237.964 201.613V205.613ZM242.318 204.55C243.799 203.866 245.189 202.913 246.493 201.718L243.79 198.769C242.75 199.722 241.699 200.429 240.641 200.918L242.318 204.55ZM246.529 201.684C249.488 198.834 251.418 195.167 252.37 190.78L248.46 189.932C247.654 193.65 246.068 196.574 243.754 198.803L246.529 201.684ZM252.372 190.771L259.549 156.933L255.636 156.103L248.459 189.941L252.372 190.771ZM259.593 156.518C259.593 155.708 259.393 154.896 259.093 154.115L255.36 155.551C255.548 156.04 255.593 156.351 255.593 156.518H259.593ZM259.15 154.284C258.898 153.403 258.518 152.579 258.012 151.82L254.684 154.038C254.958 154.451 255.164 154.896 255.304 155.383L259.15 154.284ZM257.888 151.654C256.28 149.71 254.041 148.805 251.44 148.805V152.805C253.039 152.805 254.072 153.316 254.807 154.204L257.888 151.654ZM251.44 148.805C248.97 148.805 246.627 149.626 244.443 151.138L246.719 154.427C248.343 153.303 249.906 152.805 251.44 152.805V148.805ZM244.423 151.152C242.343 152.63 240.433 154.638 238.676 157.12L241.94 159.432C243.502 157.226 245.108 155.572 246.739 154.413L244.423 151.152ZM238.661 157.14C235.568 161.625 233.073 167.39 231.13 174.365L234.983 175.438C236.849 168.742 239.188 163.422 241.954 159.411L238.661 157.14ZM231.136 174.344C230.233 177.454 229.554 180.546 229.101 183.619L233.058 184.202C233.483 181.318 234.123 178.404 234.977 175.459L231.136 174.344ZM229.101 183.614C228.65 186.62 228.42 189.382 228.42 191.894H232.42C232.42 189.621 232.629 187.061 233.057 184.207L229.101 183.614ZM228.42 191.894C228.42 196.962 229.331 201.088 231.828 203.453L234.579 200.549C233.364 199.399 232.42 196.787 232.42 191.894H228.42ZM231.738 203.362C232.593 204.284 233.628 204.956 234.842 205.26L235.812 201.379C235.464 201.292 235.082 201.086 234.669 200.64L231.738 203.362ZM234.842 205.26C235.811 205.502 236.857 205.613 237.964 205.613V201.613C237.118 201.613 236.405 201.528 235.812 201.379L234.842 205.26ZM293.335 212.768L291.904 214.165L291.911 214.172L293.335 212.768ZM288.281 182.885L290.247 183.254L290.249 183.242L290.251 183.23L288.281 182.885ZM291.357 171.313L289.478 170.629L289.475 170.637L291.357 171.313ZM304.175 150.512L302.789 149.07L302.78 149.079L304.175 150.512ZM334.863 143.627L333.708 145.26L333.731 145.276L333.754 145.291L334.863 143.627ZM337.939 149.706H335.939L339.896 150.122L337.939 149.706ZM345.264 115.209L344.995 113.227L343.6 113.416L343.307 114.794L345.264 115.209ZM367.456 112.206L369.412 112.622L370.003 109.844L367.188 110.224L367.456 112.206ZM350.244 193.212L352.16 193.787L352.183 193.708L352.2 193.628L350.244 193.212ZM363.208 199.877L364.708 201.201L364.722 201.184L364.736 201.168L363.208 199.877ZM367.896 190.356V188.356H366.416L365.983 189.771L367.896 190.356ZM374.194 190.356L376.082 191.018L377.015 188.356H374.194V190.356ZM364.453 208.154L365.936 209.496L365.942 209.489L365.949 209.481L364.453 208.154ZM353.54 215.698L352.873 213.812L352.869 213.813L353.54 215.698ZM329.37 204.345L331.351 204.069L330.621 198.837L327.703 203.24L329.37 204.345ZM320.654 213.72L319.504 212.084L319.493 212.092L319.483 212.099L320.654 213.72ZM320.361 202.807L319.582 200.965L319.569 200.971L319.556 200.976L320.361 202.807ZM323.95 200.536L325.263 202.046L325.279 202.032L325.294 202.018L323.95 200.536ZM329.224 191.161L331.174 191.606L331.224 191.386V191.161H329.224ZM329.224 190.356L327.268 189.939L327.224 190.145V190.356H329.224ZM336.548 156.005L338.504 156.422L338.6 155.969L338.488 155.52L336.548 156.005ZM335.083 152.709L336.672 151.494L336.656 151.473L336.639 151.453L335.083 152.709ZM324.536 152.783L323.398 151.138L323.388 151.145L323.378 151.152L324.536 152.783ZM319.263 158.276L317.631 157.12L317.623 157.13L317.616 157.14L319.263 158.276ZM312.012 174.902L313.932 175.459L313.935 175.449L313.938 175.438L312.012 174.902ZM310.034 183.91L312.012 184.207L312.013 184.202L310.034 183.91ZM312.158 202.001L313.624 200.64L313.58 200.593L313.534 200.549L312.158 202.001ZM307.178 216.115C301.918 216.115 297.845 214.492 294.759 211.363L291.911 214.172C295.857 218.173 301.012 220.115 307.178 220.115V216.115ZM294.766 211.37C291.157 207.676 289.183 202.014 289.183 194.018H285.183C285.183 202.623 287.309 209.461 291.904 214.165L294.766 211.37ZM289.183 194.018C289.183 190.641 289.534 187.054 290.247 183.254L286.316 182.516C285.563 186.529 285.183 190.364 285.183 194.018H289.183ZM290.251 183.23C290.915 179.438 291.91 175.692 293.24 171.989L289.475 170.637C288.07 174.551 287.015 178.519 286.311 182.54L290.251 183.23ZM293.237 171.996C296.28 163.627 300.406 156.969 305.57 151.945L302.78 149.079C297.104 154.602 292.685 161.811 289.478 170.629L293.237 171.996ZM305.561 151.954C311.464 146.281 318.178 143.503 325.781 143.503V139.503C317.076 139.503 309.386 142.731 302.789 149.07L305.561 151.954ZM325.781 143.503C329.665 143.503 332.2 144.194 333.708 145.26L336.018 141.994C333.522 140.229 330.003 139.503 325.781 139.503V143.503ZM333.754 145.291C335.297 146.32 335.939 147.551 335.939 149.12H339.939C339.939 146.1 338.531 143.669 335.973 141.963L333.754 145.291ZM335.939 149.12V149.706H339.939V149.12H335.939ZM339.896 150.122L347.22 115.625L343.307 114.794L335.983 149.291L339.896 150.122ZM345.532 117.191L367.724 114.188L367.188 110.224L344.995 113.227L345.532 117.191ZM365.5 111.791L348.288 192.797L352.2 193.628L369.412 112.622L365.5 111.791ZM348.328 192.638C347.825 194.314 347.585 196.122 347.585 198.046H351.585C351.585 196.455 351.784 195.04 352.16 193.787L348.328 192.638ZM347.585 198.046C347.585 200.336 348.121 202.503 349.755 203.891L352.345 200.844C352.026 200.572 351.585 199.858 351.585 198.046H347.585ZM349.755 203.891C351.268 205.178 353.41 205.613 355.737 205.613V201.613C353.768 201.613 352.785 201.218 352.345 200.844L349.755 203.891ZM355.737 205.613C359.205 205.613 362.211 204.03 364.708 201.201L361.708 198.554C359.81 200.705 357.836 201.613 355.737 201.613V205.613ZM364.736 201.168C366.832 198.686 368.496 195.231 369.808 190.941L365.983 189.771C364.756 193.782 363.295 196.674 361.68 198.587L364.736 201.168ZM367.896 192.356H374.194V188.356H367.896V192.356ZM372.307 189.694C369.726 197.053 366.591 202.732 362.957 206.826L365.949 209.481C370.03 204.883 373.389 198.697 376.082 191.018L372.307 189.694ZM362.971 206.811C359.889 210.215 356.521 212.522 352.873 213.812L354.207 217.583C358.567 216.041 362.475 213.319 365.936 209.496L362.971 206.811ZM352.869 213.813C350.228 214.754 347.308 215.236 344.092 215.236V219.236C347.712 219.236 351.091 218.692 354.211 217.582L352.869 213.813ZM344.092 215.236C340.304 215.236 337.462 214.241 335.366 212.427L332.749 215.452C335.732 218.033 339.578 219.236 344.092 219.236V215.236ZM335.366 212.427C333.282 210.624 331.888 207.918 331.351 204.069L327.389 204.621C328.024 209.17 329.755 212.861 332.749 215.452L335.366 212.427ZM327.703 203.24C325.119 207.139 322.378 210.063 319.504 212.084L321.805 215.356C325.181 212.982 328.25 209.656 331.037 205.45L327.703 203.24ZM319.483 212.099C315.766 214.786 311.682 216.115 307.178 216.115V220.115C312.536 220.115 317.437 218.513 321.826 215.341L319.483 212.099ZM316.919 205.613C318.329 205.613 319.752 205.26 321.167 204.638L319.556 200.976C318.529 201.428 317.657 201.613 316.919 201.613V205.613ZM321.141 204.649C322.619 204.023 323.993 203.15 325.263 202.046L322.638 199.027C321.661 199.876 320.643 200.516 319.582 200.965L321.141 204.649ZM325.294 202.018C328.268 199.319 330.214 195.816 331.174 191.606L327.274 190.717C326.475 194.221 324.906 196.968 322.606 199.055L325.294 202.018ZM331.224 191.161V190.356H327.224V191.161H331.224ZM331.18 190.773L338.504 156.422L334.592 155.588L327.268 189.939L331.18 190.773ZM338.488 155.52C338.102 153.975 337.519 152.603 336.672 151.494L333.494 153.924C333.916 154.476 334.31 155.301 334.608 156.49L338.488 155.52ZM336.639 151.453C335.13 149.584 332.912 148.805 330.396 148.805V152.805C332.079 152.805 332.985 153.295 333.527 153.966L336.639 151.453ZM330.396 148.805C327.926 148.805 325.582 149.626 323.398 151.138L325.675 154.427C327.298 153.303 328.862 152.805 330.396 152.805V148.805ZM323.378 151.152C321.298 152.63 319.388 154.638 317.631 157.12L320.895 159.432C322.457 157.226 324.063 155.572 325.695 154.413L323.378 151.152ZM317.616 157.14C314.523 161.625 312.028 167.39 310.085 174.365L313.938 175.438C315.804 168.742 318.143 163.422 320.909 159.411L317.616 157.14ZM310.091 174.344C309.188 177.454 308.509 180.546 308.056 183.619L312.013 184.202C312.438 181.318 313.078 178.404 313.932 175.459L310.091 174.344ZM308.056 183.614C307.605 186.62 307.375 189.382 307.375 191.894H311.375C311.375 189.621 311.584 187.061 312.012 184.207L308.056 183.614ZM307.375 191.894C307.375 196.962 308.286 201.088 310.783 203.453L313.534 200.549C312.32 199.399 311.375 196.787 311.375 191.894H307.375ZM310.693 203.362C311.548 204.284 312.583 204.956 313.797 205.26L314.767 201.379C314.419 201.292 314.038 201.086 313.624 200.64L310.693 203.362ZM313.797 205.26C314.766 205.502 315.812 205.613 316.919 205.613V201.613C316.073 201.613 315.361 201.528 314.767 201.379L313.797 205.26Z" fill="black"/>
<path d="M110.508 303.214C111.753 304.107 113.038 304.493 114.365 304.371C115.701 304.256 116.84 303.642 117.783 302.529L118.217 302.016C119.018 301.07 119.307 300.102 119.085 299.112C118.877 298.12 118.24 297.241 117.174 296.476L116.818 296.221C115.972 295.614 115.338 295.326 114.918 295.356C114.506 295.393 114.017 295.745 113.452 296.413C113.3 296.56 113.194 296.669 113.133 296.74L112.386 297.527C112.319 297.606 112.251 297.686 112.184 297.765L110.803 299.228L110.689 299.338C110.622 299.417 110.554 299.497 110.487 299.576L109.545 300.568L109.171 301.009C108.747 301.51 108.895 302.019 109.614 302.535L109.81 302.713L110.508 303.214ZM99.7228 308.166C98.6732 307.413 98.4682 306.659 99.1077 305.904C99.202 305.793 99.6259 305.509 100.38 305.053C101.142 304.603 102.127 303.776 103.336 302.574C104.552 301.363 105.587 300.253 106.442 299.243L107.167 298.46C107.65 297.937 107.962 297.593 108.104 297.426L108.339 297.173L109.651 295.623C110.877 294.176 111.618 293.219 111.877 292.753C112.144 292.293 112.322 292.012 112.409 291.908C112.692 291.574 113.258 291.629 114.107 292.072C115.335 292.71 116.923 293.728 118.87 295.124C121.798 297.225 122.971 299.415 122.389 301.693C122.177 302.538 121.802 303.278 121.263 303.914L121.011 304.212C119.725 305.73 118.13 306.586 116.225 306.779C115.342 306.873 114.512 306.834 113.734 306.659C112.972 306.483 112.015 306.135 110.863 305.615C108.118 304.374 106.193 304.406 105.089 305.709C104.806 306.043 104.53 306.458 104.259 306.954C103.996 307.442 103.79 307.774 103.642 307.949C103.204 308.466 102.62 308.762 101.889 308.838C101.173 308.912 100.535 308.749 99.9767 308.348L99.7228 308.166Z" fill="black"/>
<path d="M131.784 317.923C132.957 318.464 133.623 318.589 133.782 318.296L133.835 318.2C133.919 318.044 134.308 316.604 135.001 313.879C135.698 311.144 135.938 309.727 135.721 309.626L135.664 309.6C135.645 309.591 135.271 309.865 134.542 310.421C130.793 313.258 128.702 315.074 128.269 315.87L128.224 315.952C128.149 316.09 128.291 316.241 128.651 316.407L128.863 316.539L129.883 317.045L131.784 317.923ZM137.665 306.385L137.991 306.536C138.795 306.907 139.127 307.948 138.988 309.658C138.765 312.543 137.888 316.964 136.358 322.92C136.169 323.68 136.064 324.479 136.045 325.317C136.036 326.16 135.981 326.673 135.881 326.856C135.597 327.377 135.168 327.751 134.595 327.979C134.021 328.206 133.488 328.206 132.996 327.979L132.684 327.835C131.861 327.455 131.483 326.965 131.549 326.366C131.556 326.266 131.641 326.014 131.803 325.608C131.98 325.197 132.122 324.805 132.231 324.431C132.614 323.12 132.727 322.153 132.569 321.531C132.426 320.904 131.446 320.171 129.631 319.332C127.815 318.494 126.58 318.176 125.925 318.377C125.28 318.583 124.387 319.201 123.246 320.231C122.894 320.549 122.549 320.922 122.21 321.349C121.88 321.781 121.635 322.046 121.475 322.144C121.16 322.33 120.738 322.301 120.208 322.057C119.688 321.816 119.367 321.451 119.244 320.959C119.122 320.467 119.187 319.988 119.442 319.522C119.701 319.046 120.256 318.593 121.107 318.161C121.948 317.725 123.948 316.13 127.107 313.376C132.079 309.032 135.104 306.697 136.182 306.37C136.773 306.197 137.268 306.202 137.665 306.385Z" fill="black"/>
<path d="M161.258 320.916L161.384 320.481C161.7 319.39 161.581 318.45 161.029 317.661C160.477 316.873 159.559 316.321 158.274 316.006L157.728 315.872C156.756 315.634 156.086 315.61 155.718 315.798C155.349 315.986 155.027 316.556 154.752 317.506L154.644 317.769L153.205 322.014L153.053 322.539C152.946 322.909 152.975 323.184 153.14 323.364C153.315 323.546 153.696 323.709 154.282 323.853L154.423 323.871L154.959 323.986L155.499 324.086C156.774 324.399 157.96 324.266 159.059 323.689C160.161 323.101 160.894 322.177 161.258 320.916ZM150.892 329.677L150.486 332.261C150.324 332.822 149.957 333.209 149.386 333.422C148.826 333.639 148.156 333.651 147.376 333.461C145.98 333.119 145.441 332.397 145.76 331.297C145.826 331.066 146.085 330.696 146.536 330.185C146.99 329.664 147.333 329.115 147.564 328.54C148.568 326.043 149.586 323.008 150.619 319.435L150.765 318.989C150.862 318.691 150.952 318.397 151.036 318.107L151.453 316.778C151.78 315.648 151.978 314.85 152.047 314.385L152.078 314.054C152.111 313.752 152.139 313.561 152.162 313.481C152.293 313.03 152.712 312.817 153.42 312.84C154.128 312.864 155.52 313.129 157.594 313.638L159.02 313.987C162.44 314.825 164.374 316.359 164.823 318.591C164.972 319.388 164.907 320.267 164.63 321.228C164.12 322.989 162.907 324.411 160.99 325.496C159.929 326.093 159.328 326.637 159.186 327.127C159.044 327.618 159.269 329.125 159.861 331.648C160.058 332.468 160.363 333.287 160.776 334.107C161.189 334.926 161.355 335.475 161.274 335.756L161.187 336.056C161.031 336.596 160.508 336.757 159.617 336.539C158.727 336.321 158.131 335.929 157.829 335.362C157.54 334.787 157.157 333.451 156.681 331.352C156.214 329.255 155.948 328.134 155.882 327.989C155.468 327.095 154.892 326.558 154.154 326.377C153.415 326.196 152.713 326.431 152.048 327.083C151.671 327.451 151.286 328.316 150.892 329.677Z" fill="black"/>
<path d="M183.28 330.854C184.57 330.919 185.225 330.786 185.245 330.453L185.252 330.344C185.263 330.167 185.002 328.678 184.471 325.877C183.941 323.065 183.556 321.653 183.317 321.641L183.254 321.638C183.234 321.637 183.012 322.032 182.588 322.824C180.404 326.875 179.285 329.352 179.231 330.257L179.225 330.35C179.216 330.506 179.409 330.594 179.804 330.614L180.052 330.658L181.189 330.747L183.28 330.854ZM183.698 317.89L184.057 317.908C184.942 317.953 185.684 318.799 186.284 320.446C187.307 323.22 188.391 327.672 189.537 333.8C189.688 334.58 189.933 335.364 190.272 336.153C190.621 336.942 190.79 337.441 190.777 337.649C190.742 338.242 190.513 338.752 190.091 339.179C189.668 339.606 189.187 339.805 188.646 339.778L188.303 339.76C187.398 339.714 186.848 339.4 186.653 338.816C186.617 338.72 186.586 338.453 186.56 338.014C186.546 337.564 186.508 337.145 186.448 336.756C186.238 335.39 185.929 334.446 185.522 333.924C185.126 333.393 183.93 333.077 181.932 332.975C179.935 332.874 178.683 333.04 178.177 333.473C177.681 333.907 177.136 334.818 176.542 336.206C176.36 336.635 176.206 337.112 176.08 337.637C175.965 338.163 175.856 338.502 175.753 338.653C175.548 338.945 175.154 339.076 174.571 339.047C173.999 339.018 173.553 338.797 173.234 338.384C172.914 337.972 172.77 337.5 172.802 336.97C172.834 336.429 173.144 335.798 173.729 335.077C174.305 334.356 175.436 332.118 177.122 328.366C179.772 322.452 181.515 319.14 182.351 318.432C182.812 318.048 183.261 317.868 183.698 317.89Z" fill="black"/>
<path d="M204.447 323.055C204.556 324.144 204.655 324.95 204.743 325.474L204.795 325.972L204.995 327.442L205.047 327.94L205.273 329.659C205.308 329.99 205.339 330.238 205.367 330.403L205.419 330.9C205.453 331.232 205.484 331.475 205.51 331.629L205.559 332.111C205.576 332.277 205.599 332.442 205.627 332.606L205.676 333.088L205.912 334.774L206.068 335.699C206.151 336.192 206.393 336.499 206.793 336.621C207.192 336.732 207.747 336.737 208.459 336.636L209.155 336.537C211.362 336.222 212.967 335.157 213.971 333.341C214.409 332.553 214.705 331.554 214.86 330.343C215.016 329.132 214.971 327.803 214.728 326.354L214.683 326.092C214.045 322.302 212.384 320.025 209.7 319.261C208.903 319.038 208.04 318.993 207.111 319.125L206.4 319.227C205.245 319.391 204.564 319.678 204.359 320.086C204.151 320.483 204.18 321.473 204.447 323.055ZM199.882 319.272C199.799 318.779 200.077 318.424 200.716 318.207C201.855 317.823 203.549 317.471 205.797 317.151L206.54 317.045C211.345 316.36 214.778 317.743 216.837 321.194C217.556 322.396 218.05 323.793 218.318 325.385L218.334 325.477L218.399 325.862C218.677 327.516 218.658 329.191 218.342 330.888C218.024 332.574 217.379 333.981 216.407 335.108C215.445 336.234 214.343 337.091 213.101 337.678C211.857 338.255 210.183 338.694 208.08 338.994L207.724 339.044L207.35 339.082C205.102 339.402 203.641 339.506 202.967 339.391C202.608 339.327 202.396 339.105 202.332 338.724C202.313 338.611 202.388 338.243 202.558 337.619C202.864 336.492 202.786 334.552 202.323 331.799L201.723 327.104L201.634 326.391L201.268 323.934C201.023 322.476 200.852 321.585 200.755 321.262C200.658 320.939 200.495 320.563 200.264 320.133C200.033 319.703 199.906 319.416 199.882 319.272Z" fill="black"/>
<path d="M235.238 332.999L234.387 333.261C233.521 333.528 232.809 333.627 232.253 333.559C231.707 333.488 231.377 333.296 231.263 332.983C231.145 332.66 231.171 332.151 231.339 331.457C231.503 330.753 231.515 330.025 231.375 329.274C231.078 327.667 230.543 325.802 229.77 323.677C229.767 323.668 229.675 323.369 229.495 322.783L229.138 321.619L228.456 319.608C227.893 318.062 227.489 317.103 227.243 316.732C226.994 316.352 226.66 315.997 226.242 315.669C225.83 315.328 225.579 315.035 225.49 314.79C225.134 313.811 226.011 312.997 228.122 312.346L228.689 312.171C229.316 311.978 229.848 311.95 230.286 312.087C230.73 312.212 230.998 312.401 231.091 312.656L231.171 312.876C231.221 313.013 231.184 313.384 231.06 313.988C230.947 314.589 230.931 315.122 231.011 315.587C231.32 317.408 232.035 319.86 233.157 322.944L233.795 325.017C233.856 325.216 233.921 325.408 233.988 325.594L234.259 326.474L234.635 327.599C234.984 328.559 235.27 329.178 235.494 329.458C235.727 329.734 235.99 330.001 236.284 330.259C236.577 330.517 236.786 330.818 236.91 331.16C237.035 331.503 236.924 331.853 236.578 332.21C236.242 332.564 235.795 332.827 235.238 332.999Z" fill="black"/>
<path d="M251.363 305.623C251.603 306.05 251.693 306.433 251.633 306.772C251.573 307.111 251.468 307.317 251.317 307.388C251.176 307.455 250.206 307.416 248.408 307.27C247.31 307.182 246.305 307.355 245.392 307.789C244.489 308.218 243.842 308.808 243.453 309.557C243.067 310.292 243.096 311.055 243.54 311.846C243.983 312.636 244.719 313.172 245.748 313.454C246.269 313.598 247.643 313.658 249.871 313.634C252.093 313.602 253.729 313.756 254.779 314.097C256.24 314.576 257.304 315.411 257.972 316.601L258.232 317.064C258.625 317.786 258.837 318.577 258.867 319.438C258.914 321.072 258.268 322.542 256.926 323.847C256.233 324.522 255.368 325.106 254.334 325.598C251.126 327.123 248.811 327.384 247.389 326.38C246.894 326.028 246.539 325.662 246.325 325.28C246.121 324.917 246.056 324.568 246.131 324.233C246.2 323.89 246.366 323.655 246.63 323.53C246.893 323.405 247.459 323.446 248.327 323.655C249.204 323.859 250.042 323.961 250.841 323.962C251.634 323.953 252.511 323.72 253.47 323.264C254.43 322.807 255.101 322.177 255.484 321.374C255.877 320.566 255.818 319.708 255.309 318.799C254.799 317.891 253.872 317.313 252.53 317.065C251.933 316.958 250.631 316.921 248.624 316.954C246.621 316.975 245.099 316.801 244.058 316.432C242.679 315.949 241.634 315.076 240.926 313.814C240.028 312.215 239.934 310.666 240.642 309.167C241.345 307.659 242.59 306.48 244.377 305.63L244.871 305.395C246.724 304.514 248.155 304.133 249.163 304.252C250.176 304.358 250.909 304.815 251.363 305.623Z" fill="black"/>
<path d="M276.74 311.785L274.811 313.169C272.999 314.469 271.731 315.244 271.005 315.496C270.289 315.742 269.735 315.635 269.344 315.174C269.243 315.054 269.084 314.69 268.866 314.079C268.65 313.454 268.31 312.811 267.844 312.148C264.581 307.461 262.045 304.048 260.234 301.909C259.843 301.448 259.48 301.108 259.145 300.889L258.778 300.672C258.397 300.447 258.166 300.287 258.086 300.192C257.641 299.667 257.782 299.055 258.509 298.354C259.71 297.186 261.953 295.424 265.237 293.068C266.363 292.261 267.186 291.811 267.706 291.718C268.229 291.612 268.661 291.762 269.005 292.167C269.348 292.573 269.517 292.924 269.511 293.223C269.505 293.521 269.265 293.84 268.791 294.18C268.706 294.241 268.232 294.492 267.367 294.933C266.503 295.374 265.575 295.95 264.585 296.66C263.595 297.371 263.122 298.074 263.167 298.77C263.229 299.71 263.842 300.867 265.006 302.243C265.498 302.823 266.016 303.09 266.562 303.043C267.101 302.989 267.667 302.749 268.259 302.324C268.86 301.893 269.35 301.452 269.73 301.001C270.11 300.549 270.456 300.211 270.769 299.987C271.083 299.762 271.439 299.685 271.839 299.756C272.233 299.819 272.618 300.073 272.995 300.518C273.776 301.44 273.696 302.238 272.757 302.912L272.323 303.147L271.433 303.517C270.991 303.719 270.563 303.968 270.148 304.266C269.048 305.055 268.486 305.733 268.462 306.299C268.432 306.858 268.894 307.702 269.85 308.83C270.806 309.959 271.624 310.644 272.304 310.885C272.977 311.117 273.856 310.845 274.939 310.068C276.023 309.291 276.94 308.486 277.69 307.653C278.443 306.807 278.929 306.304 279.149 306.147C279.7 305.752 280.18 305.797 280.591 306.282C281.223 307.029 281.27 307.775 280.731 308.52C280.322 309.081 278.992 310.17 276.74 311.785Z" fill="black"/>
</svg>
